<svg  viewBox="0 0 48 48" fill="none" xmlns="http://www.w3.org/2000/svg">
<g id="DE">
<path d="M7.812 19V17.356H9.444C10.948 17.356 12.26 17.044 13.38 16.42C14.508 15.788 15.384 14.912 16.008 13.792C16.64 12.672 16.956 11.384 16.956 9.928C16.956 8.48 16.64 7.204 16.008 6.1C15.384 4.996 14.508 4.136 13.38 3.52C12.26 2.904 10.948 2.596 9.444 2.596H7.812V0.951999H9.444C11.324 0.951999 12.968 1.336 14.376 2.104C15.792 2.864 16.892 3.92 17.676 5.272C18.46 6.616 18.852 8.168 18.852 9.928C18.852 11.712 18.46 13.288 17.676 14.656C16.892 16.016 15.792 17.08 14.376 17.848C12.968 18.616 11.324 19 9.444 19H7.812ZM0.66 19V17.356H3.564V2.596H0.66V0.951999H8.436V2.596H5.352V17.356H8.436V19H0.66ZM31.9988 9.1V10.696H23.7908V9.1H31.9988ZM34.9988 13.816H36.7868V19H19.8788V17.356H22.7828V2.596H19.8788V0.951999H36.5708V6.136H34.7828V2.596H24.5708V17.356H34.9988V13.816Z" fill="white"/>
<path d="M7.812 19V17.356H9.444C10.948 17.356 12.26 17.044 13.38 16.42C14.508 15.788 15.384 14.912 16.008 13.792C16.64 12.672 16.956 11.384 16.956 9.928C16.956 8.48 16.64 7.204 16.008 6.1C15.384 4.996 14.508 4.136 13.38 3.52C12.26 2.904 10.948 2.596 9.444 2.596H7.812V0.951999H9.444C11.324 0.951999 12.968 1.336 14.376 2.104C15.792 2.864 16.892 3.92 17.676 5.272C18.46 6.616 18.852 8.168 18.852 9.928C18.852 11.712 18.46 13.288 17.676 14.656C16.892 16.016 15.792 17.08 14.376 17.848C12.968 18.616 11.324 19 9.444 19H7.812ZM0.66 19V17.356H3.564V2.596H0.66V0.951999H8.436V2.596H5.352V17.356H8.436V19H0.66ZM31.9988 9.1V10.696H23.7908V9.1H31.9988ZM34.9988 13.816H36.7868V19H19.8788V17.356H22.7828V2.596H19.8788V0.951999H36.5708V6.136H34.7828V2.596H24.5708V17.356H34.9988V13.816Z" fill="url(#paint0_linear_12_105)"/>
</g>
<defs>
<linearGradient id="paint0_linear_12_105" x1="9" y1="2.5" x2="76" y2="-15" gradientUnits="userSpaceOnUse">
<stop stop-color="#850F8F"/>
<stop offset="0.0001" stop-color="#850F8F"/>
<stop offset="0.369792" stop-color="#5B27CB"/>
<stop offset="0.760417" stop-color="#2E1039"/>
<stop offset="0.9999" stop-color="#2536D4" stop-opacity="0.92"/>
<stop offset="1" stop-color="white"/>
</linearGradient>
</defs>
</svg>
